	<svg class="for" viewBox="0 0 1828.8 1219.2" version="1.1" xmlns="http://www.w3.org/2000/svg" xmlns:xlink="http://www.w3.org/1999/xlink" preserveAspectRatio="xMidYMid slice">
		<defs>
			<polygon id="path-4" points= "
				0.0,-2.0,0.07777777777777778,-0.40186334820687053,0.15555555555555556,0.008879145617497919,0.23333333333333334,0.296486653764251,0.3111111111111111,0.5251879538391786,0.3888888888888889,0.7181537162860216,0.4666666666666667,0.8867144381925431,0.5444444444444445,1.0373599698397733,0.6222222222222222,1.1741950311572564,0.7,1.2999999999999998,
				0.8,1.4530518418775729,0.93,1.7545145128592008,0.9965844930066698,2.0825793454723325,0.9157733266550575,2.4016954246529694,0.7357239106731318,2.6772815716257408,0.4759473930370737,2.879473751206489,0.16459459028073403,2.986361303402722,-0.16459459028073378,2.9863613034027225,-0.4759473930370735,2.879473751206489,-0.7357239106731313,2.677281571625741,-0.9157733266550573,2.40169542465297,-0.9965844930066698,2.082579345472333,-0.93,1.7545145128592012,-0.8,1.4530518418775733,
				-0.7,1.2999999999999998,-0.6222222222222222,1.1741950311572564,-0.5444444444444445,1.0373599698397733,-0.4666666666666667,0.8867144381925431,-0.3888888888888889,0.7181537162860216,-0.3111111111111111,0.5251879538391786,-0.23333333333333334,0.296486653764251,-0.15555555555555556,0.008879145617497919,-0.07777777777777778,-0.40186334820687053,-0.0,-2.0
				"
				 >
			</polygon> 
			<g id="raindrop"> 
				<use opacity="0.5" fill="#778899" fill-opacity="1" xlink:href="#path-4" stroke="#9999aa" stroke-width="0.1" stroke-opacity="0.8"/>
			</g>
			<g id="raindrops" viewBox="0,-2,14,26">
				<use transform="		translate(0,	0)	scale(3)" xlink:href="#raindrop">
				<use transform="scale(0.33)	translate(10,	-1)	scale(2)" xlink:href="#raindrop">
				<use transform="scale(.5)	translate(4,	9)	scale(3)" xlink:href="#raindrop">
				<use transform="scale(.33)	translate(-11,	4)	scale(2)" xlink:href="#raindrop">
				<use transform="scale(0.5)	translate(3,	-7)	scale(1)" xlink:href="#raindrop">
			</g>
			<g id="lot_of_raindrops">
				<use transform="		translate(0,	0)	scale(3)" xlink:href="#raindrops">
				<use transform="scale(0.33)	translate(50,	-10)	scale(2)" xlink:href="#raindrops">
				<use transform="scale(.5)	translate(0,	50)	scale(3)" xlink:href="#raindrops">
				<use transform="scale(.33)	translate(-60,	15)	scale(2)" xlink:href="#raindrops">
				<use transform="scale(0.5)	translate(30,	-20)	scale(1)" xlink:href="#raindrops">
			</g>
			<g id="lots_of_raindrops">
				<use transform="		translate(0,	0)	scale(1)" xlink:href="#lot_of_raindrops">
				<use transform="scale(1)	translate(100,	0)	scale(1)" xlink:href="#lot_of_raindrops">
				<use transform="scale(1)	translate(0,	100)	scale(1)" xlink:href="#lot_of_raindrops">
				<use transform="scale(1)	translate(-100,	0)	scale(1)" xlink:href="#lot_of_raindrops">
				<use transform="scale(1)	translate(50,	-50)	scale(1)" xlink:href="#lot_of_raindrops">
			</g>
			<pattern id="pattern_raindrop" viewBox="-1,-2,2,5" width="10%" height="10%">
				<use  xlink:href="#raindrop">
			</pattern>
			<pattern id="pattern_raindrops" viewBox="-20,-15,125,115" width="25%" height="23%">
				<use  xlink:href="#lot_of_raindrops">
			</pattern>
			<pattern id="pattern_lots_of_raindrops" viewBox="0,0,100,100" width="50%" height="50%">
				<rect x="0" y="0" width="100" height="100" fill="url(#pattern_raindrops)"/>
				<rect x="-25" y="-25" width="125" height="125" fill="url(#pattern_raindrops)"/>
			</pattern>
			<pattern id="pattern_lots_and_lots_of_raindrops" viewBox="0,0,200,200" width="20%" height="20%">
				<rect x="0" y="0" width="200" height="200" fill="url(#pattern_lots_of_raindrops)"/>
				<rect x="-50" y="-50" width="250" height="250" fill="url(#pattern_lots_of_raindrops)"/>
			</pattern>
		</defs> 
		<g stroke="none" stroke-width="1" fill="none"> 
			<rect x="-50" y="-50" width="100%" opacity="0.2" height="200%" fill="url(#pattern_raindrops)"/>
		</g>
	</svg>

